<svg width="60px" height="60px" viewBox="0 0 60 60" version="1.1" xmlns="http://www.w3.org/2000/svg" xmlns:xlink="http://www.w3.org/1999/xlink">
    <title>external</title>
    <defs></defs>
    <g id="colored" stroke="none" stroke-width="1" fill="none" fill-rule="evenodd" sketch:type="MSPage">
        <g id="Interaction_sliced" sketch:type="MSLayerGroup" transform="translate(-360.000000, -240.000000)"></g>
        <g id="Imported-Layers" sketch:type="MSLayerGroup" transform="translate(-358.000000, -237.000000)" fill="#535353">
            <path d="M374.784,289.059 C374.784,289.059 374.784,289.059 374.783,289.059 C373.873,289.059 373,288.709 372.39,288.099 L368.851,284.559 C367.723,283.432 367.565,281.532 368.492,280.234 L383.338,259.449 L377.338,253.448 C377.063,253.173 376.972,252.764 377.106,252.399 C377.239,252.033 377.571,251.778 377.959,251.745 L406.597,249.271 C406.896,249.247 407.182,249.351 407.39,249.56 C407.599,249.768 407.705,250.059 407.679,250.353 L405.204,278.99 C405.171,279.378 404.916,279.71 404.55,279.844 C404.185,279.977 403.776,279.886 403.501,279.611 L397.501,273.611 L376.714,288.458 C376.164,288.851 375.496,289.059 374.784,289.059 L374.784,289.059 Z M380.271,253.553 L385.352,258.634 C385.697,258.979 385.742,259.524 385.458,259.922 L370.12,281.397 C369.764,281.895 369.832,282.711 370.265,283.145 L373.804,286.685 C374.039,286.919 374.405,287.059 374.784,287.059 C375.073,287.059 375.346,286.978 375.552,286.83 L397.027,271.491 C397.425,271.208 397.971,271.251 398.315,271.598 L403.397,276.679 L405.585,251.365 L380.271,253.553 L380.271,253.553 Z" id="Fill-32" sketch:type="MSShapeGroup"></path>
        </g>
    </g>
</svg>
