<svg width="60px" height="60px" viewBox="0 0 60 60" version="1.1" xmlns="http://www.w3.org/2000/svg" xmlns:xlink="http://www.w3.org/1999/xlink">
    <title>Play</title>
    <defs></defs>
    <g id="colored" stroke="none" stroke-width="1" fill="none" fill-rule="evenodd" sketch:type="MSPage">
        <g id="Interaction_sliced" sketch:type="MSLayerGroup" transform="translate(-600.000000, -240.000000)"></g>
        <g id="Imported-Layers" sketch:type="MSLayerGroup" transform="translate(-598.000000, -237.000000)" fill="#535353">
            <path d="M648,293 L608,293 C604.691,293 602,290.309 602,287 L602,247 C602,243.691 604.691,241 608,241 L648,241 C651.309,241 654,243.691 654,247 L654,287 C654,290.309 651.309,293 648,293 L648,293 Z M608,243 C605.794,243 604,244.794 604,247 L604,287 C604,289.206 605.794,291 608,291 L648,291 C650.206,291 652,289.206 652,287 L652,247 C652,244.794 650.206,243 648,243 L608,243 L608,243 Z" id="Fill-35" sketch:type="MSShapeGroup"></path>
            <path d="M622,274.856 C621.816,274.856 621.634,274.806 621.473,274.706 C621.179,274.523 621,274.202 621,273.856 L621,260 C621,259.654 621.179,259.333 621.473,259.15 C621.768,258.968 622.135,258.95 622.443,259.104 L636.443,266.032 C636.784,266.201 637,266.548 637,266.928 C637,267.309 636.784,267.656 636.443,267.825 L622.443,274.753 C622.304,274.822 622.151,274.856 622,274.856 L622,274.856 Z M623,261.611 L623,272.246 L633.745,266.928 L623,261.611 L623,261.611 Z" id="Fill-36" sketch:type="MSShapeGroup"></path>
        </g>
    </g>
</svg>
